<?xml version="1.0" encoding="UTF-8" standalone="no"?>
<!DOCTYPE svg PUBLIC "-//W3C//DTD SVG 1.1//EN"
 "http://www.w3.org/Graphics/SVG/1.1/DTD/svg11.dtd">
<!-- Generated by graphviz version 5.0.0 (20220707.1540)
 -->
<!-- Title: dependencies Pages: 1 -->
<svg width="338pt" height="250pt"
 viewBox="0.00 0.00 338.00 249.80" xmlns="http://www.w3.org/2000/svg" xmlns:xlink="http://www.w3.org/1999/xlink">
<g id="graph0" class="graph" transform="scale(1 1) rotate(0) translate(4 245.8)">
<title>dependencies</title>
<polygon fill="white" stroke="transparent" points="-4,4 -4,-245.8 334,-245.8 334,4 -4,4"/>
<text text-anchor="middle" x="165" y="-8.2" font-family="sans-serif" font-size="14.00">dependencies</text>
<g id="clust1" class="cluster">
<title>cluster_AppModule</title>
<polygon fill="none" stroke="black" stroke-dasharray="1,5" points="8,-108.8 8,-233.8 270,-233.8 270,-108.8 8,-108.8"/>
</g>
<g id="clust3" class="cluster">
<title>cluster_AppModule_imports</title>
<polygon fill="none" stroke="black" points="154,-116.8 154,-168.8 262,-168.8 262,-116.8 154,-116.8"/>
</g>
<g id="clust6" class="cluster">
<title>cluster_AppModule_providers</title>
<polygon fill="none" stroke="black" points="16,-116.8 16,-168.8 146,-168.8 146,-116.8 16,-116.8"/>
</g>
<g id="clust7" class="cluster">
<title>cluster_UsersModule</title>
<polygon fill="none" stroke="black" stroke-dasharray="1,5" points="30,-32.8 30,-100.8 322,-100.8 322,-32.8 30,-32.8"/>
</g>
<g id="clust12" class="cluster">
<title>cluster_UsersModule_providers</title>
<polygon fill="none" stroke="black" points="38,-40.8 38,-92.8 314,-92.8 314,-40.8 38,-40.8"/>
</g>
<!-- UsersModule -->
<g id="node1" class="node">
<title>UsersModule</title>
<polygon fill="#8dd3c7" stroke="black" points="253.94,-160.8 250.94,-164.8 229.94,-164.8 226.94,-160.8 162.06,-160.8 162.06,-124.8 253.94,-124.8 253.94,-160.8"/>
<text text-anchor="middle" x="208" y="-138.6" font-family="Times,serif" font-size="14.00">UsersModule</text>
</g>
<!-- AppModule -->
<g id="node2" class="node">
<title>AppModule</title>
<polygon fill="#8dd3c7" stroke="black" points="185.66,-225.8 182.66,-229.8 161.66,-229.8 158.66,-225.8 102.34,-225.8 102.34,-189.8 185.66,-189.8 185.66,-225.8"/>
<text text-anchor="middle" x="144" y="-203.6" font-family="Times,serif" font-size="14.00">AppModule</text>
</g>
<!-- UsersModule&#45;&gt;AppModule -->
<g id="edge1" class="edge">
<title>UsersModule&#45;&gt;AppModule</title>
<path fill="none" stroke="black" d="M174.06,-160.91C174.06,-160.91 174.06,-179.79 174.06,-179.79"/>
<polygon fill="black" stroke="black" points="170.56,-179.79 174.06,-189.79 177.56,-179.79 170.56,-179.79"/>
</g>
<!-- AppService -->
<g id="node3" class="node">
<title>AppService</title>
<ellipse fill="#fdb462" stroke="black" cx="81" cy="-142.8" rx="56.75" ry="18"/>
<text text-anchor="middle" x="81" y="-138.6" font-family="Times,serif" font-size="14.00">AppService</text>
</g>
<!-- AppService&#45;&gt;AppModule -->
<g id="edge2" class="edge">
<title>AppService&#45;&gt;AppModule</title>
<path fill="none" stroke="black" d="M119.9,-155.95C119.9,-155.95 119.9,-179.49 119.9,-179.49"/>
<polygon fill="black" stroke="black" points="116.4,-179.49 119.9,-189.49 123.4,-179.49 116.4,-179.49"/>
</g>
<!-- UserMapper -->
<g id="node4" class="node">
<title>UserMapper</title>
<ellipse fill="#fdb462" stroke="black" cx="247" cy="-66.8" rx="59.11" ry="18"/>
<text text-anchor="middle" x="247" y="-62.6" font-family="Times,serif" font-size="14.00">UserMapper</text>
</g>
<!-- UserMapper&#45;&gt;UsersModule -->
<g id="edge3" class="edge">
<title>UserMapper&#45;&gt;UsersModule</title>
<path fill="none" stroke="black" d="M220.71,-83.29C220.71,-83.29 220.71,-114.75 220.71,-114.75"/>
<polygon fill="black" stroke="black" points="217.21,-114.75 220.71,-124.75 224.21,-114.75 217.21,-114.75"/>
</g>
<!-- UsersService -->
<g id="node5" class="node">
<title>UsersService</title>
<ellipse fill="#fdb462" stroke="black" cx="108" cy="-66.8" rx="61.97" ry="18"/>
<text text-anchor="middle" x="108" y="-62.6" font-family="Times,serif" font-size="14.00">UsersService</text>
</g>
<!-- UsersService&#45;&gt;UsersModule -->
<g id="edge4" class="edge">
<title>UsersService&#45;&gt;UsersModule</title>
<path fill="none" stroke="black" d="M166.13,-73.28C166.13,-73.28 166.13,-114.71 166.13,-114.71"/>
<polygon fill="black" stroke="black" points="162.63,-114.71 166.13,-124.71 169.63,-114.71 162.63,-114.71"/>
</g>
</g>
</svg>
